<mxfile host="app.diagrams.net" agent="Mozilla/5.0 (Macintosh; Intel Mac OS X 10_15_7) AppleWebKit/605.1.15 (KHTML, like Gecko) Version/18.0 Safari/605.1.15" version="24.7.17">
  <diagram id="R2lEEEUBdFMjLlhIrx00" name="Page-1">
    <mxGraphModel dx="954" dy="675" grid="1" gridSize="10" guides="1" tooltips="1" connect="1" arrows="1" fold="1" page="1" pageScale="1" pageWidth="850" pageHeight="1100" math="0" shadow="0" extFonts="Permanent Marker^https://fonts.googleapis.com/css?family=Permanent+Marker">
      <root>
        <mxCell id="0" />
        <mxCell id="1" parent="0" />
        <mxCell id="diA5JjX13ZhiRRkL0pwG-1" value="T2" style="rounded=0;whiteSpace=wrap;html=1;" vertex="1" parent="1">
          <mxGeometry x="530" y="320" width="120" height="60" as="geometry" />
        </mxCell>
        <mxCell id="diA5JjX13ZhiRRkL0pwG-2" value="T1" style="rounded=0;whiteSpace=wrap;html=1;" vertex="1" parent="1">
          <mxGeometry x="100" y="320" width="120" height="60" as="geometry" />
        </mxCell>
        <mxCell id="diA5JjX13ZhiRRkL0pwG-3" value="B1" style="ellipse;whiteSpace=wrap;html=1;" vertex="1" parent="1">
          <mxGeometry x="640" y="170" width="120" height="80" as="geometry" />
        </mxCell>
        <mxCell id="diA5JjX13ZhiRRkL0pwG-4" value="E1" style="ellipse;whiteSpace=wrap;html=1;" vertex="1" parent="1">
          <mxGeometry x="50" y="190" width="120" height="80" as="geometry" />
        </mxCell>
        <mxCell id="diA5JjX13ZhiRRkL0pwG-5" value="" style="endArrow=none;html=1;rounded=0;strokeColor=#000000;exitX=0.5;exitY=0;exitDx=0;exitDy=0;" edge="1" parent="1" source="diA5JjX13ZhiRRkL0pwG-1">
          <mxGeometry width="50" height="50" relative="1" as="geometry">
            <mxPoint x="640" y="300" as="sourcePoint" />
            <mxPoint x="690" y="250" as="targetPoint" />
          </mxGeometry>
        </mxCell>
        <mxCell id="diA5JjX13ZhiRRkL0pwG-6" value="" style="endArrow=none;html=1;rounded=0;strokeColor=#000000;exitX=0.5;exitY=0;exitDx=0;exitDy=0;entryX=0.5;entryY=1;entryDx=0;entryDy=0;" edge="1" parent="1" source="diA5JjX13ZhiRRkL0pwG-2" target="diA5JjX13ZhiRRkL0pwG-4">
          <mxGeometry width="50" height="50" relative="1" as="geometry">
            <mxPoint x="150" y="330" as="sourcePoint" />
            <mxPoint x="250" y="260" as="targetPoint" />
          </mxGeometry>
        </mxCell>
        <mxCell id="diA5JjX13ZhiRRkL0pwG-7" value="Connect" style="rhombus;whiteSpace=wrap;html=1;" vertex="1" parent="1">
          <mxGeometry x="345" y="310" width="80" height="80" as="geometry" />
        </mxCell>
        <mxCell id="diA5JjX13ZhiRRkL0pwG-8" value="" style="endArrow=none;html=1;rounded=0;strokeColor=#000000;exitX=0.5;exitY=0;exitDx=0;exitDy=0;" edge="1" parent="1" target="diA5JjX13ZhiRRkL0pwG-7">
          <mxGeometry width="50" height="50" relative="1" as="geometry">
            <mxPoint x="220" y="350" as="sourcePoint" />
            <mxPoint x="320" y="280" as="targetPoint" />
          </mxGeometry>
        </mxCell>
        <mxCell id="diA5JjX13ZhiRRkL0pwG-9" value="" style="endArrow=none;html=1;rounded=0;strokeColor=#FFFFFF;exitX=0.5;exitY=0;exitDx=0;exitDy=0;entryX=0.163;entryY=0.613;entryDx=0;entryDy=0;entryPerimeter=0;" edge="1" parent="1" target="diA5JjX13ZhiRRkL0pwG-7">
          <mxGeometry width="50" height="50" relative="1" as="geometry">
            <mxPoint x="220" y="360" as="sourcePoint" />
            <mxPoint x="345" y="360" as="targetPoint" />
          </mxGeometry>
        </mxCell>
        <mxCell id="diA5JjX13ZhiRRkL0pwG-10" value="" style="endArrow=none;html=1;rounded=0;strokeColor=#000000;entryX=0;entryY=0.5;entryDx=0;entryDy=0;labelBackgroundColor=#000000;exitX=1;exitY=0.5;exitDx=0;exitDy=0;" edge="1" parent="1" source="diA5JjX13ZhiRRkL0pwG-7">
          <mxGeometry width="50" height="50" relative="1" as="geometry">
            <mxPoint x="430" y="350" as="sourcePoint" />
            <mxPoint x="535" y="349.5" as="targetPoint" />
          </mxGeometry>
        </mxCell>
        <mxCell id="diA5JjX13ZhiRRkL0pwG-11" value="&lt;span style=&quot;caret-color: rgb(255, 255, 255);&quot;&gt;N&lt;/span&gt;" style="text;html=1;align=center;verticalAlign=middle;whiteSpace=wrap;rounded=0;fillColor=none;fontColor=#000000;strokeColor=#000000;" vertex="1" parent="1">
          <mxGeometry x="220" y="320" width="60" height="30" as="geometry" />
        </mxCell>
        <mxCell id="diA5JjX13ZhiRRkL0pwG-12" value="&lt;span style=&quot;caret-color: rgb(255, 255, 255);&quot;&gt;1&lt;/span&gt;" style="text;html=1;align=center;verticalAlign=middle;whiteSpace=wrap;rounded=0;fontColor=#000000;" vertex="1" parent="1">
          <mxGeometry x="470" y="320" width="60" height="30" as="geometry" />
        </mxCell>
      </root>
    </mxGraphModel>
  </diagram>
</mxfile>
